# xmcd CD database file
#
# Track frame offsets:
#	182
#	17177
#	29700
#	41345
#	53772
#	64470
#	76985
#	90467
#	100092
#	108347
#	118612
#	129342
#	142395
#	157272
#	170890
#	184392
#	194175
#	206070
#	216365
#	231915
#	242762
#	253557
#	268650
#	280462
#	294047
#
# Disc length: 4109 seconds
#
# Revision: 6
# Processed by: cddbd v1.5.2PL0 Copyright (c) Steve Scherf et al.
# Submitted via: CDex 1.50
#
DISCID=8b100b19
DTITLE=Verschiedene - 25 Country and Western Ballads Vol.3
DYEAR=1991
DGENRE=Country
TTITLE0=Blue Bayoun (Lynn Andersen)
TTITLE1=Have I told You Lately That I Love You (Gene Autry)
TTITLE2=Little Green Apples (Roger Miller)
TTITLE3=High Noon (Frankie Laine)
TTITLE4=I'm So Lonesome I Could Cry (Billie Jo Spears)
TTITLE5=Folsom Prison Blues (Johnny Cash)
TTITLE6=Big Bad John (Jimmy Dean)
TTITLE7=From A Jack To A King (Ned Miller)
TTITLE8=Wreck of The Old 97 (Johnny Cash)
TTITLE9=Seven Lonely Days (Dave Duddley)
TTITLE10=Sally Was A Good Old Girl (Waylon Jennings)
TTITLE11=Silver Wings (Silver Wings)
TTITLE12=Jezebel (Frankie Laine)
TTITLE13=You'll Always Have Someone (Willie Nelson)
TTITLE14=She's Got You (Patsy Cline)
TTITLE15=Rock island Line (Johnny Cash)
TTITLE16=Letter To Heaven (Dolly Parton)
TTITLE17=Take My Hand For A While (Don Williams)
TTITLE18=There Goes My Everything (Anne Murray)
TTITLE19=Hummingbird (Frankie Laine)
TTITLE20=I Fell sorry For Him (Willie Nelson)
TTITLE21=For The Good Times (Kenny Rogers)
TTITLE22=White Lighting (George Jones)
TTITLE23=Indiana Girl (Pat Boone)
TTITLE24=Crying Time (Billie Jo Spears)
EXTD=YEAR: 1991
EXTT0=
EXTT1=
EXTT2=
EXTT3=
EXTT4=
EXTT5=
EXTT6=
EXTT7=
EXTT8=
EXTT9=
EXTT10=
EXTT11=
EXTT12=
EXTT13=
EXTT14=
EXTT15=
EXTT16=
EXTT17=
EXTT18=
EXTT19=
EXTT20=
EXTT21=
EXTT22=
EXTT23=
EXTT24=
PLAYORDER=
